<svg width="59" height="59" viewBox="0 0 59 59" fill="none" xmlns="http://www.w3.org/2000/svg">
<g clip-path="url(#clip0_67_377)">
<path d="M55.0667 6.10352e-05H9.83333C7.66103 6.10352e-05 5.9 1.95676 5.9 4.37043V39.3334H0.983333C0.440287 39.3334 0 39.8226 0 40.426C0 42.8397 1.76103 44.7964 3.93333 44.7964H32.45V57.9075C32.4501 58.5108 32.8904 58.9999 33.4336 58.9998C33.6943 58.9998 33.9442 58.8846 34.1286 58.6799L39.3333 52.8968L44.5381 58.6799C44.7225 58.8848 44.9725 59.0001 45.2333 59.0001C45.3626 59.0005 45.4906 58.9723 45.6099 58.917C45.9773 58.7478 46.2168 58.3493 46.2167 57.9075V44.7964H49.1667C51.339 44.7964 53.1 42.8397 53.1 40.426V5.46302H58.0167C58.5597 5.46302 59 4.97381 59 4.37043C59 1.95676 57.239 6.10352e-05 55.0667 6.10352e-05ZM51.1333 4.37043V39.3334H47.2L44.25 41.5186H50.8688C50.5176 42.1943 49.8689 42.6108 49.1667 42.6112H46.2167V41.5186H44.25V55.2699L40.0285 50.5794C39.6446 50.1529 39.0221 50.1529 38.6381 50.5794L34.4167 55.2699V41.5186H32.45V42.6112H3.93333C3.23111 42.6108 2.58236 42.1943 2.23118 41.5186H6.88333H34.4167L31.4667 39.3334H7.86667V4.37043C7.86667 3.16353 8.74712 2.18525 9.83333 2.18525H51.6801C51.3262 2.84667 51.1374 3.60097 51.1333 4.37043ZM53.3645 3.27784C53.9085 2.23332 55.1117 1.87659 56.0518 2.4812C56.3494 2.67254 56.5966 2.94733 56.7688 3.27784H53.3645Z" fill="#0048BB"/>
<path d="M33.7752 25.6522L31.21 26.9348L32.0651 29.5L30.7825 32.0652L33.7752 34.0426L34.6303 36.7681H37.1955L39.3332 38.4783L41.4709 36.3406L44.4636 36.7681L45.3187 33.7754L47.4564 32.4928L46.1738 29.9275L47.8839 26.9348L44.8912 25.6522L44.4636 22.6594L41.4709 23.087L39.3332 20.9493L37.1955 23.087L34.2028 22.6594L33.7752 25.6522Z" fill="#0048BB"/>
<path d="M48.6032 32.0133L47.3435 29.7566L48.6081 27.5018C48.8746 27.0285 48.707 26.429 48.2339 26.1625C48.2101 26.1491 48.1856 26.1365 48.1607 26.1251L45.8134 25.0503L45.5106 22.4838C45.4465 21.9446 44.9573 21.5594 44.4181 21.6234C44.393 21.6264 44.3681 21.6303 44.3434 21.6352L41.8083 22.1377L40.055 20.2389C39.6626 19.8402 39.0213 19.8352 38.6227 20.2277C38.6189 20.2314 38.6152 20.2352 38.6115 20.2389L36.8582 22.1377L34.3232 21.6352C33.7905 21.5299 33.2731 21.8764 33.1678 22.4091C33.1629 22.4338 33.1589 22.4587 33.156 22.4838L32.8531 25.0503L30.5059 26.1271C30.0121 26.3531 29.7951 26.9367 30.0211 27.4305C30.0325 27.4554 30.045 27.4799 30.0585 27.5037L31.323 29.7566L30.0585 32.0113C29.792 32.4846 29.9595 33.0841 30.4326 33.3506C30.4565 33.364 30.4809 33.3766 30.5059 33.388L32.8531 34.4647L33.156 37.0332C33.22 37.5725 33.7092 37.9577 34.2485 37.8936C34.2735 37.8907 34.2985 37.8868 34.3232 37.8818L36.8582 37.3793L38.6115 39.2782C38.9804 39.6768 39.6025 39.7009 40.0011 39.3321C40.0198 39.3148 40.0377 39.2968 40.055 39.2782L41.8083 37.3793L44.3434 37.8818C44.6121 37.9368 44.8914 37.8753 45.1123 37.7127C45.3321 37.5507 45.4746 37.3045 45.5057 37.0332L45.8085 34.4667L48.1557 33.39C48.6495 33.1639 48.8666 32.5803 48.6405 32.0866C48.6291 32.0616 48.6166 32.0371 48.6032 32.0133ZM45.3591 30.2364L46.371 32.0418L44.4909 32.9042C44.1791 33.0473 43.9645 33.3424 43.9245 33.683L43.6826 35.7411L41.65 35.3389C41.3151 35.2694 40.9683 35.3815 40.7375 35.6339L39.3333 37.1561L37.9291 35.6359C37.743 35.4347 37.4814 35.3203 37.2073 35.3203C37.1431 35.3199 37.0792 35.3265 37.0165 35.3399L34.984 35.7421L34.7421 33.684C34.702 33.3434 34.4874 33.0483 34.1757 32.9052L32.2956 32.0428L33.3074 30.2374C33.4765 29.9375 33.4806 29.5733 33.3074 29.2757V29.2796L32.2956 27.4742L34.1757 26.6119C34.4874 26.4688 34.702 26.1737 34.7421 25.8331L34.984 23.7749L37.0165 24.1771C37.3514 24.2458 37.6977 24.1339 37.9291 23.8821L39.3333 22.357L40.7375 23.8772C40.9682 24.1298 41.3151 24.2419 41.65 24.1722L43.6826 23.77L43.9245 25.8281C43.9645 26.1687 44.1791 26.4639 44.4909 26.6069L46.371 27.4693L45.3591 29.2747C45.1917 29.5734 45.1917 29.9377 45.3591 30.2364Z" fill="#0048BB"/>
<path d="M39.3334 24.8399C36.6181 24.8399 34.4167 27.0412 34.4167 29.7566C34.4199 32.4706 36.6194 34.6699 39.3334 34.6732C42.0488 34.6732 44.2501 32.4719 44.2501 29.7566C44.2501 27.0412 42.0488 24.8399 39.3334 24.8399ZM39.3334 32.7066C37.7042 32.7066 36.3834 31.3858 36.3834 29.7566C36.3834 28.1273 37.7042 26.8066 39.3334 26.8066C40.9627 26.8066 42.2834 28.1273 42.2834 29.7566C42.2834 31.3858 40.9627 32.7066 39.3334 32.7066Z" fill="white"/>
<path d="M37.3666 7.48792H21.6333V8.77082H37.3666V7.48792Z" fill="#0048BB"/>
<path d="M47.2 11.3297H11.8V12.6126H47.2V11.3297Z" fill="#0048BB"/>
<path d="M47.2 15.2631H11.8V16.546H47.2V15.2631Z" fill="#0048BB"/>
<path d="M25.5668 28.9015H12.7834V30.1844H25.5668V28.9015Z" fill="#0048BB"/>
<path d="M25.5668 25.4812H12.7834V26.7641H25.5668V25.4812Z" fill="#0048BB"/>
</g>
<defs>
<clipPath id="clip0_67_377">
<rect width="59" height="59" fill="white"/>
</clipPath>
</defs>
</svg>
