<svg width="30" height="30" viewBox="0 0 30 30" fill="none" xmlns="http://www.w3.org/2000/svg">
<g clip-path="url(#clip0_67_597)">
<path d="M15 0C10.9936 0 7.22672 1.56047 4.39406 4.39406C1.56047 7.22672 0 10.9936 0 15C0 19.0064 1.56047 22.7733 4.39359 25.6059C7.22672 28.4395 10.9936 30 15 30C19.0064 30 22.7733 28.4395 25.6064 25.6059C28.4395 22.7733 30 19.0064 30 15C30 10.9936 28.4395 7.22672 25.6064 4.39406C22.7733 1.56047 19.0064 0 15 0ZM24.2803 24.2803C21.8016 26.7595 18.5058 28.125 15 28.125C11.4942 28.125 8.19844 26.7595 5.71969 24.2803C3.24047 21.8016 1.875 18.5058 1.875 15C1.875 11.4942 3.24047 8.19844 5.71969 5.71969C8.19844 3.24047 11.4942 1.875 15 1.875C18.5058 1.875 21.8016 3.24047 24.2808 5.71969C26.76 8.19844 28.125 11.4942 28.125 15C28.125 18.5058 26.76 21.8016 24.2803 24.2803Z" fill="white"/>
<path d="M21.9319 16.9509L15.9375 14.3822V4.6875C15.9375 4.43886 15.8387 4.2004 15.6629 4.02459C15.4871 3.84877 15.2486 3.75 15 3.75C14.7514 3.75 14.5129 3.84877 14.3371 4.02459C14.1613 4.2004 14.0625 4.43886 14.0625 4.6875V15C14.0625 15.1834 14.1164 15.3628 14.2173 15.516C14.3183 15.6691 14.462 15.7893 14.6306 15.8616L21.1931 18.6741C21.3062 18.7227 21.4279 18.7486 21.551 18.7502C21.6741 18.7518 21.7964 18.7291 21.9107 18.6834C22.0251 18.6377 22.1293 18.5699 22.2174 18.4838C22.3055 18.3977 22.3757 18.2951 22.4241 18.1819C22.522 17.9534 22.5252 17.6953 22.4329 17.4645C22.3406 17.2336 22.1604 17.0489 21.9319 16.9509ZM5.625 14.0625H4.6875C4.43886 14.0625 4.2004 14.1613 4.02459 14.3371C3.84877 14.5129 3.75 14.7514 3.75 15C3.75 15.2486 3.84877 15.4871 4.02459 15.6629C4.2004 15.8387 4.43886 15.9375 4.6875 15.9375H5.625C5.87364 15.9375 6.1121 15.8387 6.28791 15.6629C6.46373 15.4871 6.5625 15.2486 6.5625 15C6.5625 14.7514 6.46373 14.5129 6.28791 14.3371C6.1121 14.1613 5.87364 14.0625 5.625 14.0625ZM23.4375 15C23.4375 15.2486 23.5363 15.4871 23.7121 15.6629C23.8879 15.8387 24.1264 15.9375 24.375 15.9375H25.3125C25.5611 15.9375 25.7996 15.8387 25.9754 15.6629C26.1512 15.4871 26.25 15.2486 26.25 15C26.25 14.7514 26.1512 14.5129 25.9754 14.3371C25.7996 14.1613 25.5611 14.0625 25.3125 14.0625H24.375C24.1264 14.0625 23.8879 14.1613 23.7121 14.3371C23.5363 14.5129 23.4375 14.7514 23.4375 15ZM15 23.4375C14.7514 23.4375 14.5129 23.5363 14.3371 23.7121C14.1613 23.8879 14.0625 24.1264 14.0625 24.375V25.3125C14.0625 25.5611 14.1613 25.7996 14.3371 25.9754C14.5129 26.1512 14.7514 26.25 15 26.25C15.2486 26.25 15.4871 26.1512 15.6629 25.9754C15.8387 25.7996 15.9375 25.5611 15.9375 25.3125V24.375C15.9375 24.1264 15.8387 23.8879 15.6629 23.7121C15.4871 23.5363 15.2486 23.4375 15 23.4375Z" fill="white"/>
</g>
<defs>
<clipPath id="clip0_67_597">
<rect width="30" height="30" fill="white"/>
</clipPath>
</defs>
</svg>
