<svg width="34" height="34" viewBox="0 0 34 34" fill="none" xmlns="http://www.w3.org/2000/svg">
<path d="M17 31.875C17.2397 31.8736 17.4718 31.7912 17.6588 31.6413C18.0625 31.28 28.6875 22.7162 28.6875 13.8125C28.6875 10.7128 27.4561 7.74002 25.2643 5.54819C23.0725 3.35636 20.0997 2.125 17 2.125C13.9003 2.125 10.9275 3.35636 8.73569 5.54819C6.54386 7.74002 5.3125 10.7128 5.3125 13.8125C5.3125 22.7162 15.9375 31.28 16.3413 31.6413C16.5282 31.7912 16.7603 31.8736 17 31.875ZM7.4375 13.8125C7.4375 11.2764 8.44497 8.84411 10.2383 7.05079C12.0316 5.25747 14.4639 4.25 17 4.25C19.5361 4.25 21.9684 5.25747 23.7617 7.05079C25.555 8.84411 26.5625 11.2764 26.5625 13.8125C26.5625 20.5063 19.2631 27.4231 17 29.4206C14.7369 27.4231 7.4375 20.5063 7.4375 13.8125Z" fill="white"/>
<path d="M22.3125 13.8125C22.3125 12.7618 22.0009 11.7347 21.4172 10.861C20.8334 9.9874 20.0037 9.30648 19.033 8.90439C18.0623 8.5023 16.9941 8.3971 15.9636 8.60208C14.9331 8.80706 13.9865 9.31303 13.2435 10.056C12.5005 10.799 11.9946 11.7456 11.7896 12.7761C11.5846 13.8066 11.6898 14.8748 12.0919 15.8455C12.494 16.8162 13.1749 17.6459 14.0485 18.2297C14.9222 18.8134 15.9493 19.125 17 19.125C18.409 19.125 19.7602 18.5653 20.7565 17.569C21.7528 16.5727 22.3125 15.2215 22.3125 13.8125ZM13.8125 13.8125C13.8125 13.1821 13.9994 12.5658 14.3497 12.0416C14.6999 11.5174 15.1978 11.1089 15.7802 10.8676C16.3626 10.6264 17.0035 10.5633 17.6219 10.6862C18.2402 10.8092 18.8081 11.1128 19.2539 11.5586C19.6997 12.0044 20.0033 12.5723 20.1263 13.1907C20.2492 13.809 20.1861 14.4499 19.9449 15.0323C19.7036 15.6147 19.2951 16.1126 18.7709 16.4628C18.2467 16.8131 17.6304 17 17 17C16.1546 17 15.3439 16.6642 14.7461 16.0664C14.1483 15.4686 13.8125 14.6579 13.8125 13.8125Z" fill="white"/>
</svg>
