<svg width="59" height="59" viewBox="0 0 59 59" fill="none" xmlns="http://www.w3.org/2000/svg">
<path d="M21.1652 18.6451H17.1956V36.5085H20.3713L21.5621 36.1115V33.7297H23.15L25.1348 34.1267L27.1196 34.9206L28.7075 35.7145H33.471L38.6315 35.3176H39.8224V34.1267V32.5388H40.2194L40.6163 30.951V29.3631L40.2194 28.5692L41.4103 27.3783L41.0133 26.1874V24.5996L41.8072 23.0117L41.0133 21.4239H35.0589C35.5881 19.9684 36.6467 16.6603 36.6467 15.0725C36.6467 13.4846 34.7942 12.2938 33.868 11.8968L31.0892 17.0573L28.3105 19.836L25.1348 21.4239L21.1652 21.8208V18.6451Z" fill="#0048BB"/>
<path d="M40.1151 20.8112H36.1349L37.0337 15.0763C37.2049 13.9208 36.6913 12.7224 35.6642 12.0805L34.0807 11.0533C33.6955 10.7965 33.1391 10.9677 32.9679 11.3957L31.5556 15.0335C30.4001 17.9865 27.8322 20.212 24.708 20.8112H21.8834V18.5857C21.8834 18.1577 21.541 17.8581 21.1558 17.8581H17.2612C16.8333 17.8581 16.5337 18.2005 16.5337 18.5857V36.475C16.5337 36.903 16.8761 37.2026 17.2612 37.2026H21.1558C21.5838 37.2026 21.8834 36.8602 21.8834 36.475V34.2496H24.1944C24.8364 34.2496 25.4356 34.5491 25.7779 35.0627C26.4199 35.9615 27.4898 36.5178 28.6026 36.5178H38.5744C39.8583 36.5178 40.9283 35.4907 40.9283 34.164C40.9283 33.6932 40.7571 33.1796 40.5003 32.7944C40.9711 32.4093 41.2706 31.8957 41.3562 31.2965L41.4418 30.6118C41.5274 30.0126 41.3562 29.4134 41.0138 28.9427C41.4846 28.5575 41.7842 28.0439 41.8698 27.4448L41.9554 26.76C42.041 26.1608 41.8698 25.5617 41.5274 25.0909C43.2393 23.7642 42.469 20.8112 40.1151 20.8112ZM20.4283 35.7475H18.0316V19.3132H20.4283V35.7475ZM40.1151 24.1066H39.088C38.66 24.1066 38.3604 24.4489 38.3604 24.8341C38.3604 25.2193 38.7028 25.5617 39.088 25.5617H39.6871C40.2007 25.5617 40.5859 25.9896 40.5003 26.5032L40.4147 27.188C40.3719 27.616 39.9867 27.9155 39.6015 27.9155H38.7456C38.3176 27.9155 38.018 28.2579 38.018 28.6859C38.018 29.1139 38.3604 29.4134 38.7456 29.4134H39.1308C39.6443 29.4134 40.0295 29.8842 39.9439 30.355L39.8583 31.0397C39.8155 31.4677 39.4303 31.7673 39.0452 31.7673H38.4032C37.9752 31.7673 37.6756 32.1097 37.6756 32.4949C37.6756 32.9228 38.018 33.2224 38.4032 33.2224H38.6172C39.088 33.2224 39.4731 33.6076 39.4731 34.0784C39.4731 34.5491 39.088 34.9343 38.6172 34.9343H28.6454C28.0034 34.9343 27.4043 34.6347 27.0619 34.1212C26.4199 33.2224 25.35 32.6661 24.2372 32.6661H21.9262V22.3091H24.8364H24.9648C28.6026 21.5815 31.6412 19.0565 32.9679 15.5899L34.0379 12.808L34.8938 13.3644C35.4074 13.7068 35.6642 14.2631 35.5786 14.8623L34.5514 21.4531C34.4658 21.9239 34.851 22.3091 35.279 22.3091H40.1151C41.2706 22.3091 41.2278 24.1066 40.1151 24.1066Z" fill="#0048BB"/>
<path d="M53.5609 3.73364H5.43906C2.44297 3.73364 0 6.13052 0 9.12661V41.0235C0 44.0196 2.44297 46.4165 5.39297 46.4165H19.9586L28.9469 54.9899C29.2695 55.2665 29.7305 55.2665 30.0531 54.9899L39.0414 46.4165H53.607C56.6031 46.4165 59 43.9735 59 41.0235V9.12661C59 6.13052 56.557 3.73364 53.5609 3.73364ZM57.3867 41.0696C57.3867 43.1899 55.6813 44.8493 53.607 44.8493H38.7188C38.4883 44.8493 38.3039 44.9415 38.1656 45.0797L29.5 53.3766L20.8344 45.0797C20.6961 44.9415 20.4656 44.8493 20.2812 44.8493H5.43906C3.31875 44.8493 1.65937 43.1438 1.65937 41.0696V9.12661C1.65937 7.0063 3.36484 5.34692 5.43906 5.34692H53.607C55.7273 5.34692 57.3867 7.05239 57.3867 9.12661V41.0696Z" fill="#0048BB"/>
</svg>
