<svg width="59" height="59" viewBox="0 0 59 59" fill="none" xmlns="http://www.w3.org/2000/svg">
<g clip-path="url(#clip0_67_431)">
<path d="M37.2102 21.1075L34.6414 22V19.3225C33.0715 18.4301 30.1887 15.3064 31.2163 9.95166C32.2438 4.59687 35.9258 2.06828 37.6384 1.47333C40.6354 0.729611 47.3144 0.313128 50.0545 4.59695C52.7946 8.88078 52.0524 12.9266 51.3389 14.4141C51.1962 14.8603 50.2257 16.556 47.4856 19.7688C44.7455 22.9817 39.4936 22 37.2102 21.1075Z" fill="#0048BB"/>
<path d="M56.5235 26.4854C56.4285 21.8874 55.1565 17.3811 52.8378 13.4226C54.7245 4.40109 45.1819 -2.93495 36.9635 1.16734C29.2162 -1.14166 20.2088 0.0861589 13.1036 5.58468C12.2023 6.27559 13.2914 7.61791 14.1554 6.95591C16.3375 5.28345 18.7549 3.98687 21.3404 3.10186C24.036 2.17918 26.8591 1.72475 29.7331 1.74917C31.53 1.76484 33.3156 1.97057 35.056 2.36129C34.3771 2.88806 33.7603 3.4912 33.2187 4.15769C19.7743 1.86171 6.9764 12.2541 6.36301 25.757C5.6542 25.7226 4.92373 25.7719 4.23844 25.9587C4.47709 20.2319 6.66112 14.6818 10.3166 10.5879C11.0608 9.75459 9.77118 8.60406 9.02712 9.43735C4.91959 14.0374 2.54518 20.3418 2.48906 26.7735C0.986406 27.8117 0 29.5455 0 31.5055V39.8537C0 43.5434 3.1429 45.6878 6.54808 45.6021C7.75297 49.0822 12.8323 48.3262 12.9187 44.592V26.4706C12.9573 24.163 10.4463 22.5229 8.35299 23.4766C10.1116 12.4446 20.7552 4.26021 32.1378 5.74929C29.6946 9.91885 30.5148 15.7756 34.0529 19.1365V21.4824C34.1683 22.1771 34.5685 22.4424 35.2535 22.2782L37.3573 21.3898C41.3255 23.2482 46.4955 22.2991 49.5262 19.3286C50.0478 20.6756 50.4287 22.0648 50.6666 23.4851C48.5714 22.5162 46.0428 24.1511 46.0815 26.4705V44.5919C46.0566 47.0491 48.799 48.6587 50.9259 47.4483C50.9215 48.2116 50.9075 48.9748 50.8776 49.7304C50.6718 52.2056 48.7626 54.2839 46.3277 54.6852C45.554 54.7613 44.6716 54.7907 43.5926 54.7753C43.2057 53.3558 41.9049 52.3092 40.3639 52.3092H35.7747C31.3374 52.4923 31.3364 58.8145 35.7747 58.998H40.3637C41.9149 58.998 43.2228 57.9373 43.6 56.5034C44.5752 56.5165 45.6077 56.5507 46.576 56.3954C49.8055 55.8788 52.3851 53.1268 52.6471 49.8516C52.648 49.8401 52.6467 49.8287 52.6471 49.8173C52.7073 48.3139 52.6619 46.7956 52.6471 45.3055C55.9877 45.4673 59 43.0337 59 39.5571V31.2089C59 29.2543 58.0191 27.5245 56.5235 26.4854ZM1.72852 39.8537V31.5055C1.72852 28.987 3.94597 27.3483 6.32717 27.485V43.8742C3.9447 44.0062 1.72852 42.38 1.72852 39.8537ZM9.65341 24.9344C10.5008 24.9344 11.1902 25.6236 11.1902 26.4706V44.592C11.1055 46.6305 8.20054 46.6288 8.11665 44.592V26.4706C8.11665 25.6235 8.8061 24.9344 9.65341 24.9344ZM40.3637 57.2701H35.7747C34.8831 57.2701 34.1575 56.545 34.1575 55.6535C34.1575 54.7621 34.8829 54.0369 35.7747 54.0369H40.3637C42.5079 54.1253 42.5096 57.1812 40.3637 57.2701ZM54.7629 25.6626C54.077 25.4753 53.3457 25.4261 52.6362 25.4605C52.4591 22.845 51.846 20.3071 50.8098 17.9021C51.3227 17.2237 51.7601 16.4852 52.1091 15.6991C53.6666 18.7944 54.5728 22.1909 54.7629 25.6626ZM41.8929 20.6213C40.4415 20.6213 39.049 20.3007 37.754 19.6684C37.5169 19.5584 37.2783 19.5519 37.0383 19.6488L35.7814 20.1796V18.7665C35.7814 18.5249 35.6802 18.2943 35.5023 18.1307C29.2094 12.3578 33.3424 1.74352 41.893 1.74825C54.4185 2.26626 54.4156 20.1047 41.8929 20.6213ZM57.2715 39.5571C57.2715 42.1029 55.0229 43.7224 52.6271 43.5776C52.6162 42.6492 52.6101 41.7207 52.6119 40.7923C52.6119 39.6753 50.8834 39.6753 50.8834 40.7923V44.5919C50.8834 45.439 50.1939 46.1281 49.3466 46.1281C48.4993 46.1281 47.8098 45.439 47.8098 44.5919V26.4706C47.8919 24.4376 50.7972 24.4283 50.8834 26.4706V36.1932C50.8834 37.3102 52.6119 37.3102 52.6119 36.1932V27.1884C55.0136 27.0525 57.2715 28.641 57.2715 31.2089V39.5571Z" fill="#0048BB"/>
<path d="M38 48V42L32 44.5L38 48Z" fill="#0048BB"/>
<circle cx="29.5" cy="35.5" r="12.5" fill="#0048BB"/>
<path d="M37.3626 48.6688C38.0477 48.833 38.4479 48.5678 38.5632 47.873V45.0522C46.8429 37.0049 41.0659 22.784 29.4998 22.7989C22.344 22.7988 16.5221 28.6175 16.5221 35.7695C16.4124 45.0488 26.4223 51.5094 34.8291 47.5989L37.3626 48.6688ZM34.4312 45.8769C27.1229 49.5558 18.1503 43.958 18.2508 35.7694C18.2507 29.5702 23.2971 24.5266 29.4999 24.5266C39.6882 24.522 44.6112 37.168 37.1138 44.0449C36.9359 44.2085 36.8347 44.4391 36.8347 44.6808V46.5701L35.1469 45.8573C34.9168 45.7601 34.6556 45.7673 34.4312 45.8769Z" fill="#0048BB"/>
<path d="M27.1885 31.7878H31.8118C32.9292 31.7878 32.9292 30.0593 31.8118 30.0593H27.1885C26.071 30.0593 26.071 31.7878 27.1885 31.7878Z" fill="white"/>
<path d="M31.8117 39.751H27.1884C26.071 39.751 26.071 41.4796 27.1884 41.4796H31.8117C32.9292 41.4796 32.9292 39.751 31.8117 39.751Z" fill="white"/>
<path d="M34.2852 34.9056H24.715C23.5976 34.9056 23.5976 36.6341 24.715 36.6341H34.2852C35.4027 36.6341 35.4027 34.9056 34.2852 34.9056Z" fill="white"/>
<path d="M41.9685 4.59167C39.927 4.55262 38.2012 6.24005 38.2012 8.28112C38.2012 9.39812 39.9297 9.39812 39.9297 8.28112C39.9297 7.21756 40.8663 6.29592 41.9337 6.31918C42.957 6.3398 43.8002 7.15524 43.8532 8.1756C43.9108 9.28489 43.0055 10.2435 41.8928 10.2435C41.4155 10.2435 41.0286 10.6303 41.0286 11.1074V14.0628C41.0286 14.5399 41.4155 14.9267 41.8928 14.9267C42.3701 14.9267 42.7571 14.5399 42.7571 14.0628V11.8677C44.4643 11.4538 45.6704 9.8408 45.5793 8.08598C45.4796 6.1654 43.8935 4.63049 41.9685 4.59167Z" fill="white"/>
<path d="M41.893 16.1647C40.7807 16.1647 40.7789 17.8932 41.893 17.8932C43.0051 17.8932 43.0069 16.1647 41.893 16.1647Z" fill="#FEFEFF"/>
</g>
<defs>
<clipPath id="clip0_67_431">
<rect width="59" height="59" fill="white"/>
</clipPath>
</defs>
</svg>
