<svg width="59" height="59" viewBox="0 0 59 59" fill="none" xmlns="http://www.w3.org/2000/svg">
<g clip-path="url(#clip0_67_419)">
<path d="M15 23.1068L15.737 18.3164L17.7176 18.6849H20.1589L23.8438 17.9479L27.5287 16.474L29.3712 15L32.3191 16.474L36.004 17.9479C36.9867 18.0708 39.0625 18.3164 39.5047 18.3164H41.8999L43.3739 18.6849V24.2123V29.655L41.5314 35.2671L38.215 39.3205L35.2671 42.6369L31.2136 45.5848L30.4767 46.3218H29.7397L26.0548 43.7424L22.7383 40.7944L18.6849 37.1095L16.474 32.3191L15.737 29.0027L15 23.1068Z" fill="#0048BB"/>
<path d="M29.371 15C22.8855 19.4219 17.3336 19.0534 15.3683 18.3164C13.5995 31.5821 18.6847 41.1629 30.4765 46.3218C45.9531 37.1095 44.1107 24.9493 43.3737 18.3164C38.9518 19.4956 32.1961 16.5968 29.371 15Z" stroke="#0048BB" stroke-width="1.5"/>
<path d="M34.198 30.8146C34.398 31.468 34.498 32.1013 34.498 32.7146C34.498 33.3946 34.3913 34.008 34.178 34.5546C33.8713 35.408 33.3313 36.088 32.558 36.5946C31.7846 37.088 30.878 37.3346 29.838 37.3346C28.8246 37.3346 27.9313 37.0946 27.158 36.6146C26.398 36.1213 25.858 35.4546 25.538 34.6146C25.4046 34.268 25.3046 33.9013 25.238 33.5146V33.4746C25.238 33.328 25.318 33.2546 25.478 33.2546H27.898C28.0313 33.2546 28.118 33.328 28.158 33.4746C28.1713 33.5546 28.1913 33.6213 28.218 33.6746C28.2446 33.728 28.2646 33.7746 28.278 33.8146C28.4113 34.1613 28.6113 34.428 28.878 34.6146C29.1446 34.8013 29.458 34.8946 29.818 34.8946C30.1913 34.8946 30.518 34.7946 30.798 34.5946C31.078 34.3946 31.2846 34.1146 31.418 33.7546C31.5513 33.488 31.618 33.1413 31.618 32.7146C31.618 32.328 31.558 31.9813 31.438 31.6746C31.3446 31.328 31.158 31.0613 30.878 30.8746C30.598 30.688 30.2713 30.5946 29.898 30.5946C29.5246 30.5946 29.178 30.6813 28.858 30.8546C28.538 31.028 28.3246 31.2546 28.218 31.5346C28.178 31.668 28.0913 31.7346 27.958 31.7346H25.498C25.4313 31.7346 25.3713 31.7146 25.318 31.6746C25.278 31.6213 25.258 31.5613 25.258 31.4946V23.4346C25.258 23.368 25.278 23.3146 25.318 23.2746C25.3713 23.2213 25.4313 23.1946 25.498 23.1946H33.758C33.8246 23.1946 33.878 23.2213 33.918 23.2746C33.9713 23.3146 33.998 23.368 33.998 23.4346V25.3746C33.998 25.4413 33.9713 25.5013 33.918 25.5546C33.878 25.5946 33.8246 25.6146 33.758 25.6146H28.178C28.1113 25.6146 28.078 25.648 28.078 25.7146L28.058 28.6746C28.058 28.768 28.098 28.788 28.178 28.7346C28.778 28.348 29.4713 28.1546 30.258 28.1546C31.1913 28.1546 32.0046 28.3946 32.698 28.8746C33.4046 29.3413 33.9046 29.988 34.198 30.8146Z" fill="white"/>
<circle cx="29.5" cy="29.5" r="28.75" stroke="#0048BB" stroke-width="1.5"/>
</g>
<defs>
<clipPath id="clip0_67_419">
<rect width="59" height="59" fill="white"/>
</clipPath>
</defs>
</svg>
