<svg width="150" height="45" viewBox="0 0 150 45" fill="none" xmlns="http://www.w3.org/2000/svg">
<path d="M1.294 44C1.00933 44 0.785667 43.9187 0.623 43.756C0.460333 43.5933 0.379 43.3697 0.379 43.085V2.215C0.379 1.93033 0.460333 1.70666 0.623 1.544C0.785667 1.38133 1.00933 1.3 1.294 1.3H10.932C11.2167 1.3 11.4403 1.38133 11.603 1.544C11.7657 1.70666 11.847 1.93033 11.847 2.215V33.874C11.847 34.0773 11.9487 34.179 12.152 34.179H31.001C31.2857 34.179 31.5093 34.2603 31.672 34.423C31.8347 34.5857 31.916 34.8093 31.916 35.094V43.085C31.916 43.3697 31.8347 43.5933 31.672 43.756C31.5093 43.9187 31.2857 44 31.001 44H1.294ZM53.1121 44.732C49.7367 44.732 46.7477 44.061 44.1451 42.719C41.5831 41.3363 39.5904 39.425 38.1671 36.985C36.7437 34.5043 36.0321 31.6373 36.0321 28.384V16.916C36.0321 13.744 36.7437 10.938 38.1671 8.498C39.5904 6.058 41.5831 4.167 44.1451 2.825C46.7477 1.483 49.7367 0.812 53.1121 0.812C56.5281 0.812 59.5171 1.483 62.0791 2.825C64.6817 4.167 66.6947 6.058 68.1181 8.498C69.5414 10.938 70.2531 13.744 70.2531 16.916V28.384C70.2531 31.6373 69.5414 34.5043 68.1181 36.985C66.6947 39.425 64.6817 41.3363 62.0791 42.719C59.5171 44.061 56.5281 44.732 53.1121 44.732ZM53.1121 34.911C54.8201 34.911 56.1824 34.362 57.1991 33.264C58.2564 32.1253 58.7851 30.6207 58.7851 28.75V16.794C58.7851 14.9233 58.2564 13.439 57.1991 12.341C56.1824 11.2023 54.8201 10.633 53.1121 10.633C51.4447 10.633 50.0824 11.2023 49.0251 12.341C48.0084 13.439 47.5001 14.9233 47.5001 16.794V28.75C47.5001 30.6207 48.0084 32.1253 49.0251 33.264C50.0824 34.362 51.4447 34.911 53.1121 34.911ZM92.5848 44.488C89.2501 44.488 86.3018 43.817 83.7398 42.475C81.2185 41.133 79.2461 39.242 77.8228 36.802C76.4401 34.362 75.7488 31.556 75.7488 28.384V16.855C75.7488 13.683 76.4401 10.8973 77.8228 8.498C79.2461 6.058 81.2185 4.167 83.7398 2.825C86.3018 1.483 89.2501 0.812 92.5848 0.812C95.8381 0.812 98.7458 1.46267 101.308 2.764C103.87 4.02466 105.842 5.753 107.225 7.949C108.648 10.145 109.36 12.5443 109.36 15.147V15.208C109.36 15.4927 109.278 15.7163 109.116 15.879C108.953 16.0417 108.729 16.123 108.445 16.123H98.8678C98.2578 16.123 97.9528 15.94 97.9528 15.574C97.9528 14.232 97.4648 13.073 96.4888 12.097C95.5535 11.121 94.2521 10.633 92.5848 10.633C90.9581 10.633 89.6568 11.182 88.6808 12.28C87.7048 13.3373 87.2168 14.7607 87.2168 16.55V28.75C87.2168 30.4987 87.7658 31.922 88.8638 33.02C90.0025 34.118 91.4055 34.667 93.0728 34.667C94.5775 34.667 95.7975 34.2603 96.7328 33.447C97.7088 32.593 98.1968 31.434 98.1968 29.97V29.177C98.1968 28.9737 98.0951 28.872 97.8918 28.872H92.5238C92.2391 28.872 92.0155 28.7907 91.8528 28.628C91.6901 28.4653 91.6088 28.2417 91.6088 27.957V20.637C91.6088 20.3523 91.6901 20.1287 91.8528 19.966C92.0155 19.8033 92.2391 19.722 92.5238 19.722H108.445C108.729 19.722 108.953 19.8033 109.116 19.966C109.278 20.1287 109.36 20.3523 109.36 20.637V28.994C109.36 32.0033 108.648 34.6873 107.225 37.046C105.842 39.4047 103.87 41.2347 101.308 42.536C98.7865 43.8373 95.8788 44.488 92.5848 44.488ZM131.95 44.732C128.574 44.732 125.585 44.061 122.983 42.719C120.421 41.3363 118.428 39.425 117.005 36.985C115.581 34.5043 114.87 31.6373 114.87 28.384V16.916C114.87 13.744 115.581 10.938 117.005 8.498C118.428 6.058 120.421 4.167 122.983 2.825C125.585 1.483 128.574 0.812 131.95 0.812C135.366 0.812 138.355 1.483 140.917 2.825C143.519 4.167 145.532 6.058 146.956 8.498C148.379 10.938 149.091 13.744 149.091 16.916V28.384C149.091 31.6373 148.379 34.5043 146.956 36.985C145.532 39.425 143.519 41.3363 140.917 42.719C138.355 44.061 135.366 44.732 131.95 44.732ZM131.95 34.911C133.658 34.911 135.02 34.362 136.037 33.264C137.094 32.1253 137.623 30.6207 137.623 28.75V16.794C137.623 14.9233 137.094 13.439 136.037 12.341C135.02 11.2023 133.658 10.633 131.95 10.633C130.282 10.633 128.92 11.2023 127.863 12.341C126.846 13.439 126.338 14.9233 126.338 16.794V28.75C126.338 30.6207 126.846 32.1253 127.863 33.264C128.92 34.362 130.282 34.911 131.95 34.911Z" fill="#2E2E2E"/>
</svg>
