<svg width="149" height="45" viewBox="0 0 149 45" fill="none" xmlns="http://www.w3.org/2000/svg">
<path d="M1.721 44C1.51767 44 1.33467 43.939 1.172 43.817C1.05 43.6543 0.989 43.4713 0.989 43.268V2.032C0.989 1.82867 1.05 1.666 1.172 1.544C1.33467 1.38133 1.51767 1.3 1.721 1.3H10.383C10.5863 1.3 10.749 1.38133 10.871 1.544C11.0337 1.666 11.115 1.82867 11.115 2.032V35.033C11.115 35.2363 11.2167 35.338 11.42 35.338H30.879C31.0823 35.338 31.245 35.4193 31.367 35.582C31.5297 35.704 31.611 35.8667 31.611 36.07V43.268C31.611 43.4713 31.5297 43.6543 31.367 43.817C31.245 43.939 31.0823 44 30.879 44H1.721ZM53.1121 44.671C49.8181 44.671 46.9104 44.0203 44.3891 42.719C41.9084 41.377 39.9767 39.5063 38.5941 37.107C37.2114 34.7077 36.5201 31.922 36.5201 28.75V16.55C36.5201 13.4593 37.2114 10.7347 38.5941 8.376C39.9767 5.97667 41.9084 4.12633 44.3891 2.825C46.9104 1.483 49.8181 0.812 53.1121 0.812C56.4061 0.812 59.3137 1.483 61.8351 2.825C64.3564 4.12633 66.3084 5.97667 67.6911 8.376C69.0737 10.7347 69.7651 13.4593 69.7651 16.55V28.75C69.7651 31.922 69.0737 34.7077 67.6911 37.107C66.3084 39.5063 64.3564 41.377 61.8351 42.719C59.3137 44.0203 56.4061 44.671 53.1121 44.671ZM53.1121 36.009C55.0641 36.009 56.6297 35.3787 57.8091 34.118C59.0291 32.8573 59.6391 31.1697 59.6391 29.055V16.428C59.6391 14.354 59.0291 12.6867 57.8091 11.426C56.6297 10.1247 55.0641 9.474 53.1121 9.474C51.2007 9.474 49.6351 10.1247 48.4151 11.426C47.2357 12.6867 46.6461 14.354 46.6461 16.428V29.055C46.6461 31.1697 47.2357 32.8573 48.4151 34.118C49.6351 35.3787 51.2007 36.009 53.1121 36.009ZM92.5848 44.488C89.3315 44.488 86.4645 43.8373 83.9838 42.536C81.5438 41.2347 79.6325 39.4047 78.2498 37.046C76.9078 34.6873 76.2368 31.9627 76.2368 28.872V16.367C76.2368 13.2763 76.9078 10.572 78.2498 8.254C79.6325 5.89533 81.5438 4.06533 83.9838 2.764C86.4645 1.46267 89.3315 0.812 92.5848 0.812C95.7975 0.812 98.6441 1.44233 101.125 2.703C103.605 3.923 105.517 5.61067 106.859 7.766C108.241 9.92133 108.933 12.3003 108.933 14.903V15.208C108.933 15.4113 108.851 15.5943 108.689 15.757C108.567 15.879 108.404 15.94 108.201 15.94H99.5388C99.3355 15.94 99.1525 15.879 98.9898 15.757C98.8678 15.5943 98.8068 15.4113 98.8068 15.208C98.8068 13.622 98.2375 12.28 97.0988 11.182C96.0008 10.0433 94.4961 9.474 92.5848 9.474C90.7141 9.474 89.2095 10.084 88.0708 11.304C86.9321 12.524 86.3628 14.11 86.3628 16.062V29.177C86.3628 31.129 86.9931 32.715 88.2538 33.935C89.5145 35.155 91.1005 35.765 93.0118 35.765C94.8011 35.765 96.2448 35.2973 97.3428 34.362C98.4408 33.386 98.9898 32.044 98.9898 30.336V28.628C98.9898 28.4247 98.8881 28.323 98.6848 28.323H92.5848C92.3815 28.323 92.1985 28.262 92.0358 28.14C91.9138 27.9773 91.8528 27.7943 91.8528 27.591V20.881C91.8528 20.6777 91.9138 20.515 92.0358 20.393C92.1985 20.2303 92.3815 20.149 92.5848 20.149H108.201C108.404 20.149 108.567 20.2303 108.689 20.393C108.851 20.515 108.933 20.6777 108.933 20.881V29.177C108.933 32.227 108.241 34.911 106.859 37.229C105.517 39.547 103.605 41.3363 101.125 42.597C98.6848 43.8577 95.8381 44.488 92.5848 44.488ZM132.009 44.671C128.715 44.671 125.808 44.0203 123.286 42.719C120.806 41.377 118.874 39.5063 117.491 37.107C116.109 34.7077 115.417 31.922 115.417 28.75V16.55C115.417 13.4593 116.109 10.7347 117.491 8.376C118.874 5.97667 120.806 4.12633 123.286 2.825C125.808 1.483 128.715 0.812 132.009 0.812C135.303 0.812 138.211 1.483 140.732 2.825C143.254 4.12633 145.206 5.97667 146.588 8.376C147.971 10.7347 148.662 13.4593 148.662 16.55V28.75C148.662 31.922 147.971 34.7077 146.588 37.107C145.206 39.5063 143.254 41.377 140.732 42.719C138.211 44.0203 135.303 44.671 132.009 44.671ZM132.009 36.009C133.961 36.009 135.527 35.3787 136.706 34.118C137.926 32.8573 138.536 31.1697 138.536 29.055V16.428C138.536 14.354 137.926 12.6867 136.706 11.426C135.527 10.1247 133.961 9.474 132.009 9.474C130.098 9.474 128.532 10.1247 127.312 11.426C126.133 12.6867 125.543 14.354 125.543 16.428V29.055C125.543 31.1697 126.133 32.8573 127.312 34.118C128.532 35.3787 130.098 36.009 132.009 36.009Z" fill="white"/>
</svg>
