<svg width="59" height="59" viewBox="0 0 59 59" fill="none" xmlns="http://www.w3.org/2000/svg">
<g clip-path="url(#clip0_67_366)">
<path d="M1.6198 34.4227L7.06168 34.9472C7.63359 37.2753 8.56965 39.4984 9.83525 41.5343L6.36865 45.72C6.23426 45.8822 6.16526 46.0888 6.17514 46.2993C6.18502 46.5097 6.27307 46.7089 6.42207 46.8579L12.1784 52.6144C12.3274 52.7634 12.5266 52.8515 12.7371 52.8613C12.9476 52.8712 13.1542 52.8022 13.3165 52.6677L17.5084 49.1961C19.546 50.455 21.7656 51.3921 24.0888 51.9744L24.6133 57.3983C24.6344 57.6057 24.7327 57.7976 24.8887 57.9359C25.0448 58.0742 25.2471 58.1488 25.4555 58.1448H33.6165C33.8249 58.1488 34.0273 58.0742 34.1833 57.9359C34.3394 57.7975 34.4376 57.6056 34.4586 57.3981L34.9832 51.9654C37.311 51.3951 39.5341 50.4605 41.5702 49.1964L45.7563 52.6652C45.9185 52.7997 46.125 52.8689 46.3354 52.8592C46.5459 52.8495 46.7452 52.7617 46.8943 52.6128L52.6507 46.8569C52.7996 46.708 52.8876 46.5088 52.8974 46.2985C52.9073 46.0881 52.8383 45.8816 52.704 45.7194L49.2325 41.5274C50.4914 39.4896 51.4286 37.2698 52.0109 34.9463L57.381 34.4225C57.5901 34.402 57.7842 34.3045 57.9254 34.1488C58.0666 33.9932 58.1448 33.7906 58.1448 33.5804V25.4194C58.1448 25.2091 58.0665 25.0063 57.9251 24.8507C57.7837 24.695 57.5893 24.5975 57.38 24.5774L51.9381 24.0528C51.366 21.7249 50.4298 19.5021 49.1641 17.4663L52.6306 13.2801C52.7643 13.1185 52.8334 12.913 52.8242 12.7035C52.815 12.4939 52.7284 12.2953 52.581 12.146L46.8974 6.38974C46.7487 6.23914 46.549 6.14972 46.3377 6.13912C46.1264 6.12851 45.9187 6.19749 45.7557 6.33245L41.5636 9.80415C39.526 8.54531 37.3064 7.6082 34.9832 7.02585L34.4586 1.60195C34.4376 1.39449 34.3394 1.20251 34.1833 1.06417C34.0273 0.92583 33.8249 0.851252 33.6165 0.855256H25.4555C25.247 0.851281 25.0447 0.925868 24.8887 1.0642C24.7326 1.20254 24.6344 1.3945 24.6133 1.60195L24.0888 7.03467C21.7612 7.60506 19.5383 8.53958 17.5023 9.80366L13.316 6.33487C13.1539 6.20029 12.9473 6.13106 12.7369 6.14072C12.5264 6.15037 12.3271 6.23822 12.1779 6.38708L6.42207 12.143C6.27317 12.2919 6.18518 12.4911 6.17531 12.7014C6.16543 12.9118 6.23437 13.1183 6.36865 13.2806L9.84021 17.4725C8.5813 19.5101 7.64419 21.7297 7.06192 24.0529L1.6198 24.5774C1.41047 24.5975 1.21615 24.695 1.07475 24.8507C0.93335 25.0063 0.855001 25.2091 0.85498 25.4194V33.5805C0.854971 33.7908 0.933306 33.9936 1.07471 34.1493C1.21611 34.305 1.41044 34.4025 1.6198 34.4227ZM2.54707 26.1883L7.83013 25.6791C8.00869 25.6619 8.17717 25.5884 8.31121 25.4692C8.44526 25.3499 8.53793 25.1912 8.57585 25.0158C9.14191 22.4692 10.1641 20.0459 11.5931 17.8632C11.6906 17.7121 11.7373 17.5339 11.7267 17.3544C11.716 17.1749 11.6484 17.0035 11.5337 16.865L8.16323 12.7942L12.8304 8.12704L16.9006 11.4977C17.0407 11.6138 17.2146 11.6815 17.3963 11.691C17.5781 11.7004 17.758 11.651 17.9094 11.55C20.0827 10.112 22.5048 9.0912 25.0518 8.53979C25.2259 8.50584 25.3844 8.41675 25.5039 8.28571C25.6234 8.15467 25.6975 7.98863 25.7152 7.81219L26.2242 2.54735H32.8485L33.3577 7.81219C33.3752 7.98968 33.449 8.15693 33.5683 8.28947C33.6877 8.42202 33.8463 8.51291 34.021 8.54885C36.5674 9.11322 38.9907 10.1339 41.1735 11.5615C41.3249 11.6587 41.5033 11.7051 41.6828 11.6941C41.8623 11.683 42.0336 11.615 42.1719 11.5L46.2378 8.13127L50.8392 12.7911L47.4655 16.8648C47.3494 17.0049 47.2817 17.1788 47.2722 17.3605C47.2628 17.5422 47.3122 17.7221 47.4131 17.8735C48.8511 20.0469 49.8719 22.469 50.4233 25.016C50.4613 25.1913 50.5539 25.3501 50.688 25.4693C50.822 25.5885 50.9905 25.6621 51.1691 25.6793L56.4521 26.1883V32.8135L51.241 33.322C51.0626 33.3394 50.8944 33.413 50.7605 33.5322C50.6267 33.6514 50.5341 33.81 50.4962 33.9852C49.9301 36.5318 48.9079 38.9551 47.479 41.1378C47.3815 41.2889 47.3347 41.4671 47.3453 41.6466C47.356 41.8261 47.4235 41.9975 47.5382 42.136L50.909 46.2063L46.2417 50.8735L42.1715 47.5028C42.0313 47.3867 41.8575 47.319 41.6757 47.3095C41.4939 47.3001 41.314 47.3495 41.1626 47.4505C38.9894 48.8886 36.5675 49.9094 34.0206 50.4607C33.8466 50.4947 33.6881 50.5838 33.5686 50.7149C33.4492 50.8459 33.3751 51.0119 33.3573 51.1883L32.8481 56.4527H26.2242L25.7151 51.1879C25.6976 51.0103 25.6238 50.8431 25.5044 50.7105C25.3851 50.578 25.2264 50.4871 25.0517 50.4512C22.5053 49.8868 20.0821 48.8661 17.8993 47.4384C17.7479 47.3412 17.5695 47.2948 17.39 47.3059C17.2105 47.317 17.0392 47.385 16.9009 47.5001L12.8307 50.8722L8.16323 46.2052L11.5337 42.1353C11.6498 41.9951 11.7175 41.8213 11.727 41.6396C11.7364 41.4579 11.687 41.2779 11.5861 41.1265C10.1481 38.9532 9.12728 36.5311 8.57585 33.9841C8.53793 33.8087 8.44526 33.65 8.31121 33.5308C8.17717 33.4115 8.00869 33.338 7.83013 33.3208L2.54707 32.8117V26.1883Z" fill="#0048BB"/>
<circle cx="29.4999" cy="29.5" r="14.9638" fill="#0048BB"/>
<path d="M29.5345 45.4559C38.3326 45.4559 45.4904 38.2982 45.4904 29.5001C45.4904 20.7019 38.3328 13.5443 29.5345 13.5443C20.7363 13.5443 13.5789 20.7019 13.5789 29.5001C13.5789 38.2982 20.7366 45.4559 29.5345 45.4559ZM29.5345 15.1575C32.3712 15.1575 35.1442 15.9987 37.5029 17.5746C39.8615 19.1506 41.6998 21.3906 42.7854 24.0113C43.871 26.6321 44.155 29.5159 43.6016 32.2981C43.0482 35.0803 41.6822 37.6359 39.6764 39.6417C37.6706 41.6476 35.115 43.0136 32.3328 43.567C29.5506 44.1204 26.6668 43.8364 24.046 42.7508C21.4253 41.6653 19.1853 39.827 17.6093 37.4684C16.0333 35.1097 15.1921 32.3368 15.1921 29.5001C15.1963 25.6975 16.7087 22.0518 19.3975 19.363C22.0863 16.6741 25.732 15.1617 29.5345 15.1575Z" fill="#0048BB"/>
<path d="M22.3087 30.3916L21.8254 32.0039C21.7997 32.0764 21.7841 32.1522 21.7793 32.229V37.5192C21.7858 38.1429 22.0372 38.7391 22.4794 39.1791C22.9215 39.6191 23.5189 39.8677 24.1427 39.8711H25.3651C25.6702 39.868 25.9717 39.8046 26.2522 39.6845C26.5327 39.5645 26.7868 39.3901 26.9997 39.1716C27.2126 38.953 27.3802 38.6945 27.4929 38.4109C27.6056 38.1274 27.6611 37.8243 27.6563 37.5192V32.229C27.6636 32.1539 27.6601 32.078 27.646 32.0039L27.1882 30.3916C27.3838 30.3546 27.5585 30.2458 27.6781 30.0866C27.7976 29.9274 27.8534 29.7294 27.8345 29.5312C27.8156 29.333 27.7233 29.149 27.5757 29.0154C27.4282 28.8817 27.2361 28.808 27.037 28.8086H25.582V20.0453C25.582 19.8314 25.4971 19.6262 25.3458 19.4749C25.1945 19.3236 24.9893 19.2386 24.7754 19.2386C24.5615 19.2386 24.3563 19.3236 24.205 19.4749C24.0538 19.6262 23.9688 19.8314 23.9688 20.0453V28.8086H22.4707C22.2716 28.8067 22.0789 28.8793 21.9305 29.012C21.782 29.1448 21.6885 29.3282 21.6682 29.5263C21.6479 29.7244 21.7024 29.9229 21.8209 30.083C21.9393 30.2431 22.1133 30.3531 22.3087 30.3916ZM23.3926 32.3439L23.9841 30.4219H25.5236L26.043 32.3439V37.5192C26.043 37.9171 25.763 38.2579 25.3651 38.2579H24.1427C23.9466 38.2549 23.7593 38.1764 23.6196 38.0389C23.4799 37.9013 23.3986 37.7152 23.3926 37.5192V32.3439Z" fill="white"/>
<path d="M29.961 28.3552V37.5433C29.961 38.1546 30.2038 38.7408 30.636 39.173C31.0683 39.6052 31.6545 39.848 32.2657 39.848C32.877 39.848 33.4632 39.6052 33.8954 39.173C34.3276 38.7408 34.5704 38.1546 34.5704 37.5433V28.3552C36.1837 27.4937 37.35 25.7301 37.35 23.8035C37.3516 22.8531 37.0869 21.9214 36.586 21.1138C36.0851 20.3062 35.368 19.655 34.5159 19.2342C34.3889 19.1728 34.2485 19.1438 34.1076 19.1501C33.9666 19.1563 33.8294 19.1974 33.7082 19.2698C33.5885 19.3409 33.4886 19.4409 33.4177 19.5608C33.3469 19.6806 33.3074 19.8164 33.3028 19.9556V21.9883L32.2351 22.7124L31.1115 21.9195L31.123 19.9558C31.1242 19.8183 31.09 19.6827 31.0238 19.5622C30.9576 19.4417 30.8616 19.3401 30.7449 19.2673C30.6283 19.1944 30.4949 19.1527 30.3575 19.1462C30.2202 19.1396 30.0834 19.1684 29.9603 19.2298C29.1145 19.6547 28.4034 20.3064 27.9065 21.1121C27.4096 21.9178 27.1465 22.8457 27.1465 23.7923C27.1465 24.7389 27.4096 25.6668 27.9065 26.4725C28.4034 27.2782 29.1145 27.9298 29.9603 28.3548L29.961 28.3552ZM29.5091 21.613L29.5067 22.336C29.5062 22.4661 29.5373 22.5945 29.5972 22.7101C29.6572 22.8256 29.7442 22.925 29.8509 22.9996L31.7809 24.3499C31.9139 24.4429 32.0718 24.4937 32.2341 24.4956C32.3963 24.4975 32.5554 24.4503 32.6905 24.3604L34.576 23.0918C34.6842 23.017 34.7719 22.9165 34.8313 22.7992C34.8907 22.6819 34.9198 22.5517 34.9161 22.4203V21.6144C35.4923 22.222 35.7032 22.9875 35.7032 23.8038C35.706 24.5127 35.4927 25.2056 35.0915 25.7901C34.6903 26.3746 34.1205 26.8229 33.4579 27.0751C33.3067 27.1338 33.1774 27.238 33.0877 27.3732C32.998 27.5084 32.9524 27.668 32.9571 27.8302V37.5433C32.9571 37.7267 32.8843 37.9026 32.7546 38.0322C32.6249 38.1619 32.4491 38.2347 32.2657 38.2347C32.0823 38.2347 31.9065 38.1619 31.7768 38.0322C31.6471 37.9026 31.5743 37.7267 31.5743 37.5433V27.8302C31.5702 27.6641 31.516 27.503 31.4189 27.3682C31.3217 27.2334 31.1861 27.131 31.0298 27.0745C30.3635 26.824 29.7889 26.3772 29.382 25.7931C28.9751 25.209 28.7551 24.5151 28.7511 23.8032C28.7452 23.0078 29.0128 22.2346 29.5091 21.613Z" fill="white"/>
</g>
<defs>
<clipPath id="clip0_67_366">
<rect width="59" height="59" fill="white"/>
</clipPath>
</defs>
</svg>
