<svg width="43" height="43" viewBox="0 0 43 43" fill="none" xmlns="http://www.w3.org/2000/svg">
<g clip-path="url(#clip0_67_511)">
<path d="M5.27757 41.8066C4.56534 41.8066 3.89558 41.5291 3.39196 41.0254L1.9269 39.5604C1.42328 39.0568 1.14575 38.387 1.14575 37.6748C1.14575 36.9621 1.42281 36.2923 1.9269 35.7892L14.32 23.3961C13.3694 19.8514 15.2248 16.0419 18.6392 14.6279C20.7929 13.7358 23.2808 13.9255 25.2948 15.1357C25.4198 15.2103 25.5024 15.3387 25.5204 15.4826C25.5383 15.6271 25.4888 15.771 25.3859 15.8739L19.3665 21.8928C18.9002 22.3596 18.9002 23.1185 19.3665 23.5849C19.8187 24.0366 20.6065 24.0366 21.0586 23.5849L27.0789 17.5641C27.1818 17.4617 27.3272 17.4121 27.4697 17.4291C27.6141 17.4466 27.7416 17.5297 27.8166 17.6543C28.0276 18.004 28.1933 18.3264 28.3231 18.6388C29.8868 22.4153 28.0875 26.7595 24.3116 28.3237C22.8069 28.9472 21.1294 29.0543 19.5568 28.6309L7.16224 41.025C6.65957 41.5291 5.98981 41.8066 5.27757 41.8066ZM21.466 15.0059C20.6338 15.0059 19.7989 15.1697 19.0007 15.5001C15.9432 16.7665 14.3186 20.2332 15.3017 23.3928C15.3537 23.5598 15.3088 23.7425 15.1847 23.8666L2.5943 36.4566C2.26909 36.7818 2.08974 37.2141 2.08974 37.6748C2.08974 38.135 2.26862 38.5678 2.5943 38.893L4.05936 40.358C4.71024 41.0089 5.84491 41.0089 6.49578 40.358L19.0871 27.7667C19.2108 27.6426 19.393 27.5977 19.561 27.6497C21.0025 28.0985 22.561 28.0277 23.951 27.4519C27.246 26.0869 28.8168 22.2958 27.4518 19.0009C27.4069 18.8933 27.3583 18.7856 27.3036 18.6752L21.7265 24.2527C21.3225 24.6567 20.7849 24.8795 20.2128 24.8795C19.6408 24.8795 19.1032 24.6567 18.6991 24.2527C17.8647 23.4178 17.8647 22.0598 18.6991 21.2254L24.271 15.654C23.3804 15.2235 22.4251 15.0059 21.466 15.0059Z" fill="white" stroke="white" stroke-width="0.7"/>
<path d="M23.8227 42.7156H19.1302C17.3493 42.7147 15.9013 41.2661 15.9013 39.4862C15.9013 38.6291 15.4307 38.151 15.0366 37.9013C14.9134 37.8234 14.8332 37.6927 14.8195 37.5478C14.8058 37.4024 14.8596 37.2594 14.9658 37.1593L19.7891 32.614C19.891 32.5182 20.0284 32.4701 20.1695 32.4885C22.0466 32.7146 23.9667 32.4498 25.7211 31.7234C28.4534 30.592 30.584 28.4591 31.7187 25.7187C32.8538 22.9778 32.8557 19.9642 31.7239 17.2318C29.3837 11.5816 22.8835 8.88889 17.2318 11.2286C12.6639 13.1208 9.8796 17.8723 10.4611 22.7839C10.4781 22.9273 10.4285 23.0704 10.3261 23.1728L5.6699 27.8313C5.57314 27.9281 5.44287 27.981 5.30222 27.9682C5.16534 27.9583 5.03979 27.8899 4.95814 27.7808C4.59565 27.2966 4.09345 27.0507 3.4657 27.0502C3.46523 27.0502 3.46428 27.0502 3.46381 27.0502C2.60242 27.0502 1.79249 26.7146 1.18267 26.1048C0.572387 25.495 0.236328 24.6841 0.236328 23.8213V19.1302C0.236328 18.2678 0.571914 17.4574 1.18173 16.8471C1.79201 16.2373 2.6029 15.9013 3.46523 15.9013C4.6032 15.9013 5.06197 15.0876 5.2064 14.7378C5.35178 14.3871 5.60241 13.4866 4.79813 12.6823C4.18832 12.0725 3.85226 11.2616 3.85273 10.3988C3.85273 9.53599 4.18879 8.72511 4.7986 8.11529L8.11529 4.7986C8.72558 4.18879 9.53599 3.8532 10.3964 3.8532C10.3974 3.8532 10.3978 3.8532 10.3983 3.8532C11.2606 3.8532 12.0715 4.18926 12.6813 4.79908C13.4851 5.60335 14.3867 5.35225 14.7364 5.20735C15.0866 5.06245 15.9003 4.6032 15.9003 3.4657C15.9027 1.68534 17.3508 0.2368 19.1297 0.236328H23.8218C23.8222 0.236328 23.8227 0.236328 23.8227 0.236328C24.6846 0.236328 25.495 0.571914 26.1048 1.1822C26.7141 1.79154 27.0502 2.60195 27.0507 3.46428C27.0507 4.60367 27.8649 5.06245 28.2146 5.20688C28.4879 5.32063 29.4413 5.62648 30.2697 4.7986C31.5275 3.54074 33.576 3.54027 34.8352 4.79813L38.1529 8.11624C38.7627 8.72605 39.0987 9.53693 39.0987 10.3993C39.0987 11.2621 38.7627 12.0729 38.1529 12.6828C37.325 13.5106 37.6308 14.4645 37.7441 14.7373C37.89 15.088 38.3497 15.9022 39.4862 15.9022C41.2666 15.9027 42.7151 17.3508 42.7156 19.1302L42.7151 23.8218C42.7142 25.6007 41.2661 27.0488 39.4872 27.0511H39.4867C38.3487 27.0511 37.889 27.8653 37.7446 28.2151C37.6308 28.4888 37.325 29.4427 38.1529 30.2701C39.4107 31.5285 39.4112 33.5764 38.1543 34.8357L34.8357 38.1538C33.5764 39.4103 31.5289 39.4103 30.2706 38.1548C29.4663 37.3491 28.5653 37.6002 28.2151 37.7451C27.8649 37.8904 27.0507 38.3502 27.0507 39.4872C27.0507 40.3495 26.7146 41.1604 26.1048 41.7702C25.8013 42.0737 25.4487 42.3097 25.0574 42.4711C24.6671 42.6325 24.2518 42.7151 23.8227 42.7156ZM16.0103 37.4718C16.4266 37.873 16.8453 38.5172 16.8453 39.4867C16.8453 40.746 17.87 41.7712 19.1302 41.7721H23.8218C24.1262 41.7716 24.4203 41.7136 24.6964 41.5994C24.973 41.4851 25.2217 41.318 25.4369 41.1028C25.8683 40.6714 26.1062 40.0975 26.1062 39.4872C26.1062 37.7328 27.4434 37.0423 27.8531 36.8728C28.2632 36.7029 29.6967 36.2455 30.9375 37.4869C31.8272 38.3756 33.2767 38.3766 34.1683 37.4859L37.4859 34.1683C38.3756 33.2777 38.3752 31.8282 37.485 30.9375C36.2422 29.6948 36.702 28.2627 36.8724 27.8535C37.0413 27.4443 37.7309 26.1072 39.4853 26.1072C39.4858 26.1072 39.4858 26.1072 39.4862 26.1072C40.745 26.1057 41.7697 25.0801 41.7707 23.8213L41.7716 19.1297C41.7712 17.8704 40.7465 16.8457 39.4877 16.8453C37.7328 16.8453 37.0423 15.5081 36.8724 15.0984C36.7024 14.6897 36.2432 13.2567 37.4855 12.0144C37.9169 11.583 38.1548 11.0091 38.1548 10.3983C38.1548 9.78803 37.9169 9.21456 37.4855 8.78269L34.1678 5.46506C33.2767 4.57488 31.8268 4.57582 30.9366 5.466C29.6943 6.70828 28.2618 6.24951 27.8531 6.07912C27.4443 5.91014 26.1067 5.22104 26.1067 3.46428C26.1062 2.854 25.8683 2.28053 25.4374 1.84913C25.006 1.4182 24.4321 1.18031 23.8227 1.18031C23.8222 1.18031 23.8222 1.18031 23.8218 1.18031H19.1302C17.8714 1.18078 16.8467 2.20595 16.8457 3.4657C16.8457 5.22056 15.5086 5.91014 15.0989 6.07959C14.6892 6.24951 13.2558 6.70734 12.0154 5.46694C11.5835 5.03507 11.01 4.79766 10.3997 4.79766C10.3993 4.79766 10.3988 4.79766 10.3983 4.79766C9.78898 4.79766 9.21598 5.03507 8.7841 5.46694L5.46742 8.78363C5.03554 9.21503 4.79813 9.78898 4.79813 10.3997C4.79813 11.01 5.03554 11.584 5.46694 12.0154C6.70781 13.2562 6.24998 14.6897 6.08006 15.0989C5.91109 15.5081 5.22245 16.8457 3.46711 16.8457C3.46664 16.8457 3.46664 16.8457 3.46617 16.8457C2.85636 16.8457 2.28241 17.0836 1.85054 17.515C1.41772 17.9464 1.18031 18.5199 1.18031 19.1302V23.8213C1.18031 24.4321 1.41772 25.006 1.84913 25.4374C2.28053 25.8688 2.85352 26.1062 3.46287 26.1062C3.46334 26.1062 3.46381 26.1062 3.46428 26.1062C4.33275 26.1067 4.9402 26.4371 5.35083 26.8137L9.49728 22.6654C8.97857 17.4183 11.9837 12.3802 16.8693 10.3563C23.0005 7.81558 30.0554 10.7391 32.5947 16.8703C33.8233 19.8358 33.8214 23.1067 32.5895 26.0798C31.3581 29.0533 29.0467 31.367 26.0812 32.5956C24.2461 33.3555 22.2444 33.6501 20.2766 33.4509L16.0103 37.4718Z" fill="white" stroke="white" stroke-width="0.7"/>
</g>
<defs>
<clipPath id="clip0_67_511">
<rect width="43" height="43" fill="white"/>
</clipPath>
</defs>
</svg>
