<svg width="43" height="43" viewBox="0 0 43 43" fill="none" xmlns="http://www.w3.org/2000/svg">
<g clip-path="url(#clip0_67_504)">
<path d="M21.476 42.7156C9.76443 42.7156 0.236328 33.1875 0.236328 21.476C0.236328 9.76443 9.76443 0.236328 21.476 0.236328C33.1875 0.236328 42.7156 9.76443 42.7156 21.476C42.7156 33.1875 33.1875 42.7156 21.476 42.7156ZM21.476 2.1243C10.8056 2.1243 2.1243 10.8056 2.1243 21.476C2.1243 32.1463 10.8056 40.8276 21.476 40.8276C32.1463 40.8276 40.8276 32.1463 40.8276 21.476C40.8276 10.8056 32.1463 2.1243 21.476 2.1243Z" fill="white"/>
<path d="M14.868 19.3757C16.1714 19.3757 17.228 18.3191 17.228 17.0157C17.228 15.7124 16.1714 14.6558 14.868 14.6558C13.5646 14.6558 12.5081 15.7124 12.5081 17.0157C12.5081 18.3191 13.5646 19.3757 14.868 19.3757Z" fill="white"/>
<path d="M28.0838 19.3757C29.3872 19.3757 30.4438 18.3191 30.4438 17.0157C30.4438 15.7124 29.3872 14.6558 28.0838 14.6558C26.7805 14.6558 25.7239 15.7124 25.7239 17.0157C25.7239 18.3191 26.7805 19.3757 28.0838 19.3757Z" fill="white"/>
<path d="M21.476 32.9667C17.7218 32.9667 14.2371 31.0933 12.1537 27.9555C11.8653 27.5213 11.9838 26.9351 12.418 26.6472C12.8523 26.3578 13.4385 26.4773 13.7264 26.9115C15.4591 29.5211 18.3562 31.0792 21.476 31.0792C24.5959 31.0792 27.493 29.5211 29.2257 26.9115C29.5136 26.4768 30.0989 26.3578 30.534 26.6472C30.9683 26.9351 31.0867 27.5218 30.7984 27.9555C28.715 31.0933 25.2298 32.9667 21.476 32.9667Z" fill="white"/>
</g>
<defs>
<clipPath id="clip0_67_504">
<rect width="43" height="43" fill="white"/>
</clipPath>
</defs>
</svg>
