<svg width="59" height="59" viewBox="0 0 59 59" fill="none" xmlns="http://www.w3.org/2000/svg">
<path d="M11.1159 14.1087V44.8913C4.27529 51.7319 8.26564 56.2923 11.1159 57.7174V51.7319L14.5362 50.0218L18.384 51.7319V57.7174C25.2246 52.929 21.2342 47.1715 18.384 44.8913V14.1087C24.8826 7.95222 21.0917 2.9928 18.384 1.28265V7.26816L14.5362 8.97831L11.5434 7.6957L11.1159 6.84062V1.28265C9.54825 2.28024 6.584 5.04497 7.26805 8.12323C7.95211 11.2015 10.1183 13.3962 11.1159 14.1087Z" fill="#0048BB"/>
<path d="M32.4928 29.5H26.9348V32.9203H32.4928V29.5Z" fill="#0048BB"/>
<path fill-rule="evenodd" clip-rule="evenodd" d="M22.1675 10.572V16.3006H24.0112V12.4157H34.9889V16.3006H36.8327V10.572H22.1675Z" fill="#0048BB"/>
<path d="M4.60938 16.1382C4.36488 16.1382 4.1304 16.2354 3.95751 16.4083C3.78463 16.5812 3.6875 16.8156 3.6875 17.0601V48.4039C3.6875 48.6484 3.78463 48.8828 3.95751 49.0557C4.1304 49.2285 4.36488 49.3257 4.60938 49.3257H8.32637V47.482H5.53125V17.982H11.6709V16.1382H4.60938ZM17.9397 16.1382V17.982H53.4688V47.482H20.851V49.3257H54.3906C54.6351 49.3257 54.8696 49.2285 55.0425 49.0557C55.2154 48.8828 55.3125 48.6484 55.3125 48.4039V17.0601C55.3125 16.8156 55.2154 16.5812 55.0425 16.4083C54.8696 16.2354 54.6351 16.1382 54.3906 16.1382H17.9397Z" fill="#0048BB"/>
<path d="M3.6875 21.5367V25.062C3.6875 28.9523 7.021 32.0555 11.0625 32.0555H11.9844V30.2117H11.0625C7.95394 30.2117 5.53125 27.9013 5.53125 25.062V21.5367H3.6875ZM53.4688 21.5367V25.062C53.4688 27.9013 51.0461 30.2117 47.9375 30.2117H31.5484V32.0555H47.9375C51.979 32.0555 55.3125 28.9523 55.3125 25.062V21.5367H53.4688ZM17.5414 30.2117V32.0555H26.9612V30.2117H17.5396H17.5414Z" fill="#0048BB"/>
<path d="M26.7344 28.3681C26.4899 28.3681 26.2554 28.4651 26.0825 28.6379C25.9096 28.8108 25.8125 29.0455 25.8125 29.29V32.9775C25.8125 33.222 25.9096 33.4564 26.0825 33.6293C26.2554 33.8021 26.4899 33.8993 26.7344 33.8993H32.2656C32.5101 33.8993 32.7446 33.8021 32.9175 33.6293C33.0904 33.4564 33.1875 33.222 33.1875 32.9775V29.29C33.1875 29.0455 33.0904 28.8108 32.9175 28.6379C32.7446 28.4651 32.5101 28.3681 32.2656 28.3681H26.7344ZM27.6562 30.2118H31.3438V32.0556H27.6562V30.2118ZM11.033 0.0774886C10.8812 0.0824983 10.733 0.124963 10.6016 0.20105C9.3422 0.92814 8.29606 1.97347 7.56797 3.23225C6.83988 4.49104 6.45543 5.91897 6.45312 7.37315C6.45312 10.1996 7.97975 12.58 10.1406 14.0716V44.9303C7.98159 46.4219 6.45312 48.7985 6.45312 51.6231C6.45543 53.0773 6.83988 54.5054 7.56797 55.7642C8.29606 57.0229 9.3422 58.0683 10.6016 58.7954C10.7417 58.8763 10.9007 58.9189 11.0625 58.9189C11.2243 58.9189 11.3833 58.8763 11.5234 58.7954C11.6636 58.7145 11.7799 58.5981 11.8609 58.458C11.9418 58.3178 11.9844 58.1589 11.9844 57.9971V52.204L14.75 50.8212L17.5156 52.204V57.9971C17.5153 58.159 17.5577 58.3183 17.6384 58.4587C17.7192 58.5991 17.8356 58.7156 17.9758 58.7967C18.116 58.8778 18.2751 58.9206 18.437 58.9207C18.599 58.9208 18.7582 58.8782 18.8984 58.7972C20.1587 58.0698 21.2055 57.0236 21.9337 55.7637C22.6618 54.5038 23.0457 53.0747 23.0469 51.6195C23.0469 48.7949 21.5202 46.4183 19.3594 44.9267V14.0678C21.5202 12.5743 23.0469 10.196 23.0469 7.36955C23.0446 5.91537 22.6601 4.48732 21.932 3.22854C21.2039 1.96976 20.1578 0.924426 18.8984 0.197337C18.7586 0.116581 18.5999 0.074051 18.4384 0.0738875C18.2769 0.0737241 18.1182 0.115964 17.9782 0.196437C17.8381 0.276909 17.7217 0.392722 17.6405 0.532349C17.5593 0.671976 17.5163 0.830541 17.5156 0.992049V6.79068L14.75 8.17349L11.9844 6.79068V0.992049C11.9839 0.868774 11.9588 0.746789 11.9104 0.633404C11.862 0.52002 11.7914 0.417535 11.7027 0.331927C11.614 0.246319 11.509 0.179321 11.394 0.134993C11.279 0.0906659 11.1562 0.0698294 11.033 0.073775V0.0774886ZM10.1406 3.17869V7.36392C10.1408 7.53518 10.1887 7.70315 10.2789 7.84872C10.3691 7.99429 10.4981 8.11174 10.6513 8.18812L14.3388 10.0319C14.4666 10.0955 14.6073 10.1286 14.75 10.1286C14.8927 10.1286 15.0334 10.0955 15.1612 10.0319L18.8487 8.18812C19.0022 8.1116 19.1314 7.99375 19.2216 7.84782C19.3118 7.70189 19.3595 7.53369 19.3594 7.36212V3.17689C20.4232 4.34767 21.2013 5.74895 21.2031 7.37698C21.2031 9.76279 19.8996 11.8093 17.9729 12.9303C17.8337 13.0115 17.7182 13.1277 17.638 13.2674C17.5578 13.4072 17.5156 13.5657 17.5156 13.7268V45.2715C17.5149 45.4333 17.5568 45.5925 17.6371 45.7329C17.7173 45.8734 17.8332 45.9901 17.9729 46.0716C19.8996 47.1926 21.2031 49.2373 21.2031 51.6231C21.2031 53.253 20.4269 54.6562 19.3594 55.827V51.6342C19.3592 51.4629 19.3113 51.2952 19.2211 51.1496C19.1309 51.004 19.0019 50.8866 18.8487 50.8102L15.1612 48.9665C15.0334 48.9028 14.8927 48.8697 14.75 48.8697C14.6073 48.8697 14.4666 48.9028 14.3388 48.9665L10.6513 50.8102C10.4981 50.8866 10.3691 51.004 10.2789 51.1496C10.1887 51.2952 10.1408 51.4629 10.1406 51.6342V55.8234C9.07678 54.6544 8.29872 53.253 8.29688 51.6231C8.29688 49.2373 9.60041 47.1926 11.5271 46.0716C11.6668 45.9901 11.7827 45.8734 11.8629 45.7329C11.9432 45.5925 11.9851 45.4333 11.9844 45.2715V13.725C11.9841 13.5642 11.9418 13.4062 11.8615 13.2668C11.7813 13.1274 11.666 13.0113 11.5271 12.9303C9.60041 11.8093 8.29872 9.76279 8.29688 7.37698C8.30056 5.75079 9.07678 4.3495 10.1406 3.1824V3.17869Z" fill="#0048BB"/>
</svg>
